<?xml version="1.0" encoding="UTF-8" standalone="no"?>
<!-- Created with Inkscape (http://www.inkscape.org/) -->

<svg
   xmlns:dc="http://purl.org/dc/elements/1.1/"
   xmlns:cc="http://creativecommons.org/ns#"
   xmlns:rdf="http://www.w3.org/1999/02/22-rdf-syntax-ns#"
   xmlns:svg="http://www.w3.org/2000/svg"
   xmlns="http://www.w3.org/2000/svg"
   xmlns:sodipodi="http://sodipodi.sourceforge.net/DTD/sodipodi-0.dtd"
   xmlns:inkscape="http://www.inkscape.org/namespaces/inkscape"
   inkscape:version="0.91 r13725"
   version="1.1"
   id="svg2"
   viewBox="0 0 420.2616 303.86572"
   height="85.75766mm"
   width="118.60716mm"
   sodipodi:docname="DNA_icon.svg">
  <sodipodi:namedview
     inkscape:window-maximized="1"
     inkscape:window-y="-8"
     inkscape:window-x="-8"
     inkscape:window-height="1377"
     inkscape:window-width="2560"
     showgrid="true"
     inkscape:current-layer="layer1"
     inkscape:document-units="px"
     inkscape:cy="-4.1526328"
     inkscape:cx="-203.73626"
     inkscape:zoom="0.98994949"
     inkscape:pageshadow="2"
     inkscape:pageopacity="0.0"
     borderopacity="1.0"
     bordercolor="#666666"
     pagecolor="#ffffff"
     id="base"
     fit-margin-top="0"
     fit-margin-left="0"
     fit-margin-right="0"
     fit-margin-bottom="0">
    <inkscape:grid
       id="grid4148"
       type="xygrid"
       originx="-230.55833"
       originy="-510.33614" />
  </sodipodi:namedview>
  <defs
     id="defs4">
    <clipPath
       clipPathUnits="userSpaceOnUse"
       id="clipPath4822">
      <rect
         style="fill:none;fill-opacity:1;stroke:#000000;stroke-width:6.29166698;stroke-miterlimit:4;stroke-dasharray:none;stroke-opacity:1"
         id="rect4824"
         width="128.70833"
         height="303.86572"
         x="321.45294"
         y="226.0385"
         ry="0" />
    </clipPath>
  </defs>
  <metadata
     id="metadata7">
    <rdf:RDF>
      <cc:Work
         rdf:about="">
        <dc:format>image/svg+xml</dc:format>
        <dc:type
           rdf:resource="http://purl.org/dc/dcmitype/StillImage" />
        <dc:title />
      </cc:Work>
    </rdf:RDF>
  </metadata>
  <g
     id="layer1"
     inkscape:groupmode="layer"
     inkscape:label="Layer 1"
     transform="translate(-230.55833,-238.16033)">
    <g
       id="g4218">
      <path
         inkscape:connector-curvature="0"
         style="fill:none;fill-opacity:1;stroke:#000000;stroke-width:10;stroke-miterlimit:4;stroke-dasharray:none;stroke-opacity:1"
         d="m 441.75467,89.976759 c 10.17849,5.849411 20.33177,11.698821 28.66322,17.548231 8.33147,5.84941 14.79269,11.69882 18.25044,17.54824 3.45777,5.84941 3.87971,11.69882 1.20767,17.54823 -2.67206,5.84941 -8.44272,11.69883 -16.27389,17.54822 -7.83118,5.84942 -17.69803,11.69883 -27.84342,17.54823 -10.14538,5.84942 -20.52401,11.69883 -29.29799,17.54826 -8.77397,5.84941 -15.89403,11.69881 -20.10921,17.54823 -4.21513,5.84941 -5.49005,11.69881 -3.61512,17.54823 1.87497,5.84941 6.90834,11.6988 14.19226,17.54825 7.28392,5.8494 16.79708,11.69881 26.84386,17.54823 10.04679,5.84939 20.58376,11.6988 29.74363,17.54822 9.15987,5.8494 16.8928,11.69883 21.83814,17.54825 4.94533,5.8494 7.06499,11.6988 5.99927,17.54823 -1.06571,5.8494 -5.32938,11.6988 -12.01901,17.54823 -6.68962,5.8494 -15.78768,11.69882 -25.67102,17.54824 -9.88333,5.84941 -20.51064,11.6988 -29.99727,17.54822 -9.48661,5.84941 -17.78247,11.69881 -23.42607,17.54823 -5.64359,5.84942 -8.59432,11.69884 -8.34468,17.54825 0.24974,5.8494 3.71601,11.69881 9.76818,17.54823 6.05214,5.8494 14.67638,11.69881 24.33244,17.54823 9.65607,5.84942 20.3051,11.69884 30.05721,17.54824 9.75212,5.84941 18.55742,11.69883 24.86283,17.54822 6.3054,5.84941 10.06818,11.69881 10.63622,17.54823 0.56808,5.84942 -2.07863,11.69884 -7.45427,17.54825 -5.37563,5.8494 -13.47034,11.69882 -22.83681,17.54823 -9.36646,5.8494 -19.96849,11.69881 -29.92317,17.54824 -9.95466,5.84941 -19.21251,11.69883 -26.13903,17.54823 -6.92652,5.84941 -11.47698,11.69883 -12.8591,17.54822 -1.38213,5.84941 0.42786,11.69883 5.09225,17.54825 4.6644,5.8494 12.17734,11.69882 21.19375,17.54823 9.01641,5.8494 19.50295,11.69882 29.59592,17.54823 10.09297,5.8494 19.74359,11.69882 27.24652,17.54824 7.50293,5.84941 12.81176,11.69883 14.99899,17.54823 2.18723,5.8494 1.22567,11.69882 -2.69737,17.54822 -3.92307,5.84941 -10.8057,11.69884 -19.41386,17.54825 -8.60815,5.84942 -18.91158,11.69882 -29.07764,17.54823 -10.16609,5.8494 -20.14721,11.69882 -28.17814,17.54823 -8.03086,5.8494 -14.06379,11.69884 -17.04199,17.54824 -2.97824,5.84942 -2.8713,11.69883 0.28509,17.54822 3.15633,5.84942 9.36431,11.69883 17.50859,17.54823 8.14432,5.84941 18.19806,11.69884 28.37166,17.54825 10.17359,5.84942 20.42079,11.69882 28.92781,17.54823 8.50699,5.84942 15.22505,11.69882 18.97503,17.54823 3.75001,5.84944 4.49838,11.69884 2.12906,17.54824 -2.36931,5.84943 -7.86248,11.69883 -15.49037,17.54822 -7.62791,5.84944 -17.36707,11.69883 -27.48248,17.54823 -10.11543,5.84944 -20.56253,11.69885 -29.49075,17.54825 -8.92821,5.84942 -16.28801,11.69883 -20.78557,17.54823 -4.49756,5.84942 -6.09644,11.69883 -4.52945,17.54823"
         title="sin(x)"
         id="path4656" />
      <path
         inkscape:connector-curvature="0"
         style="fill:none;fill-opacity:1;stroke:#000000;stroke-width:10;stroke-miterlimit:4;stroke-dasharray:none;stroke-opacity:1"
         d="m 441.75467,151.5542 c 10.17849,5.8494 20.33177,11.69882 28.66322,17.54822 8.33147,5.84942 14.79269,11.69885 18.25044,17.54825 3.45777,5.84942 3.87971,11.69883 1.20767,17.54825 -2.67206,5.8494 -8.44272,11.69882 -16.27389,17.54823 -7.83118,5.84942 -17.69803,11.69882 -27.84342,17.54823 -10.14538,5.84942 -20.52401,11.69881 -29.29799,17.54826 -8.77397,5.8494 -15.89403,11.6988 -20.10921,17.54822 -4.21513,5.8494 -5.49005,11.69881 -3.61512,17.54823 1.87497,5.8494 6.90834,11.69881 14.19226,17.54824 7.28392,5.84941 16.79708,11.69881 26.84386,17.54823 10.04679,5.84939 20.58376,11.69879 29.74363,17.54821 9.15987,5.8494 16.8928,11.69882 21.83814,17.54824 4.94533,5.84941 7.06499,11.69881 5.99927,17.54823 -1.06571,5.84941 -5.32938,11.69881 -12.01901,17.54823 -6.68962,5.84941 -15.78768,11.69883 -25.67102,17.54825 -9.88333,5.8494 -20.51064,11.69881 -29.99727,17.54823 -9.48661,5.84939 -17.78247,11.6988 -23.42607,17.54822 -5.64359,5.84942 -8.59432,11.69885 -8.34468,17.54824 0.24974,5.84941 3.71601,11.69881 9.76818,17.54823 6.05214,5.84941 14.67638,11.69881 24.33244,17.54823 9.65607,5.84942 20.3051,11.69884 30.05721,17.54825 9.75212,5.8494 18.55742,11.69882 24.86283,17.54823 6.3054,5.84939 10.06818,11.6988 10.63622,17.54822 0.56808,5.84942 -2.07863,11.69884 -7.45427,17.54824 -5.37563,5.84941 -13.47034,11.69883 -22.83681,17.54823 -9.36646,5.84941 -19.96849,11.69881 -29.92317,17.54825 -9.95466,5.8494 -19.21251,11.69882 -26.13903,17.54823 -6.92652,5.8494 -11.47698,11.69882 -12.8591,17.54823 -1.38213,5.84939 0.42786,11.69881 5.09225,17.54823 4.6644,5.84941 12.17734,11.69883 21.19375,17.54823 9.01641,5.84941 19.50295,11.69883 29.59592,17.54823 10.09297,5.84941 19.74359,11.69883 27.24652,17.54825 7.50293,5.8494 12.81176,11.69882 14.99899,17.54823 2.18723,5.84939 1.22567,11.69882 -2.69737,17.54822 -3.92307,5.8494 -10.8057,11.69885 -19.41386,17.54824 -8.60815,5.84944 -18.91158,11.69883 -29.07764,17.54823 -10.16609,5.84941 -20.14721,11.69883 -28.17814,17.54823 -8.03086,5.84941 -14.06379,11.69885 -17.04199,17.54825 -2.97824,5.84942 -2.8713,11.69883 0.28509,17.54823 3.15633,5.84942 9.36431,11.69883 17.50859,17.54822 8.14432,5.8494 18.19806,11.69884 28.37166,17.54825 10.17359,5.84942 20.42079,11.69882 28.92781,17.54823 8.50699,5.84942 15.22505,11.69882 18.97503,17.54823 3.75001,5.84943 4.49838,11.69884 2.12906,17.54824 -2.36931,5.84942 -7.86248,11.69883 -15.49037,17.54823 -7.62791,5.84942 -17.36707,11.69882 -27.48248,17.54822 -10.11543,5.84945 -20.56253,11.69884 -29.49075,17.54825 -8.92821,5.84942 -16.28801,11.69882 -20.78557,17.54823 -4.49756,5.84942 -6.09644,11.69878 -4.52945,17.54818"
         title="sin(x)"
         id="path4656-3" />
      <path
         inkscape:connector-curvature="0"
         id="path4705"
         d="m 486.81364,184.48401 c -51.42857,0 -51.42857,0 -51.42857,0 l 0,0"
         style="fill:none;fill-rule:evenodd;stroke:#000000;stroke-width:10;stroke-linecap:butt;stroke-linejoin:miter;stroke-miterlimit:4;stroke-dasharray:none;stroke-opacity:1" />
      <path
         inkscape:connector-curvature="0"
         id="path4707"
         d="m 492.52793,204.48401 c -90,0 -90,0 -90,0"
         style="fill:none;fill-rule:evenodd;stroke:#000000;stroke-width:10;stroke-linecap:butt;stroke-linejoin:miter;stroke-miterlimit:4;stroke-dasharray:none;stroke-opacity:1" />
      <path
         inkscape:connector-curvature="0"
         id="path4709"
         d="m 468.9565,224.48401 c -76.42857,0 -76.42857,0 -76.42857,0"
         style="fill:none;fill-rule:evenodd;stroke:#000000;stroke-width:10;stroke-linecap:butt;stroke-linejoin:miter;stroke-miterlimit:4;stroke-dasharray:none;stroke-opacity:1" />
      <path
         inkscape:connector-curvature="0"
         id="path4711"
         d="m 438.24222,244.48401 c -35.71429,0 -35.71429,0 -35.71429,0"
         style="fill:none;fill-rule:evenodd;stroke:#000000;stroke-width:10;stroke-linecap:butt;stroke-linejoin:miter;stroke-miterlimit:4;stroke-dasharray:none;stroke-opacity:1" />
      <path
         inkscape:connector-curvature="0"
         id="path4713"
         d="m 432.52793,264.48401 -30,0"
         style="fill:none;fill-rule:evenodd;stroke:#000000;stroke-width:10;stroke-linecap:butt;stroke-linejoin:miter;stroke-miterlimit:4;stroke-dasharray:none;stroke-opacity:1" />
      <path
         inkscape:connector-curvature="0"
         id="path4715"
         d="m 462.52793,284.48401 -70,0"
         style="fill:none;fill-rule:evenodd;stroke:#000000;stroke-width:10;stroke-linecap:butt;stroke-linejoin:miter;stroke-miterlimit:4;stroke-dasharray:none;stroke-opacity:1" />
      <path
         inkscape:connector-curvature="0"
         id="path4717"
         d="m 485.38507,304.48401 -82.85714,0"
         style="fill:none;fill-rule:evenodd;stroke:#000000;stroke-width:10;stroke-linecap:butt;stroke-linejoin:miter;stroke-miterlimit:4;stroke-dasharray:none;stroke-opacity:1" />
      <path
         inkscape:connector-curvature="0"
         id="path4719"
         d="m 488.9565,324.48401 -56.42857,0"
         style="fill:none;fill-rule:evenodd;stroke:#000000;stroke-width:10;stroke-linecap:butt;stroke-linejoin:miter;stroke-miterlimit:4;stroke-dasharray:none;stroke-opacity:1" />
      <path
         inkscape:connector-curvature="0"
         id="path4721"
         d="m 486.81364,364.48401 -54.28571,0"
         style="fill:none;fill-rule:evenodd;stroke:#000000;stroke-width:10;stroke-linecap:butt;stroke-linejoin:miter;stroke-miterlimit:4;stroke-dasharray:none;stroke-opacity:1" />
      <path
         inkscape:connector-curvature="0"
         id="path4723"
         d="m 492.52793,384.48401 -90,0"
         style="fill:none;fill-rule:evenodd;stroke:#000000;stroke-width:10;stroke-linecap:butt;stroke-linejoin:miter;stroke-miterlimit:4;stroke-dasharray:none;stroke-opacity:1" />
      <path
         inkscape:connector-curvature="0"
         id="path4725"
         d="m 468.24222,404.48401 -75.71429,0"
         style="fill:none;fill-rule:evenodd;stroke:#000000;stroke-width:10;stroke-linecap:butt;stroke-linejoin:miter;stroke-miterlimit:4;stroke-dasharray:none;stroke-opacity:1" />
      <path
         inkscape:connector-curvature="0"
         id="path4727"
         d="m 432.52793,424.48401 -30,0"
         style="fill:none;fill-rule:evenodd;stroke:#000000;stroke-width:10;stroke-linecap:butt;stroke-linejoin:miter;stroke-miterlimit:4;stroke-dasharray:none;stroke-opacity:1" />
      <path
         inkscape:connector-curvature="0"
         id="path4729"
         d="m 432.52793,444.48401 -30,0"
         style="fill:none;fill-rule:evenodd;stroke:#000000;stroke-width:10;stroke-linecap:butt;stroke-linejoin:miter;stroke-miterlimit:4;stroke-dasharray:none;stroke-opacity:1" />
      <path
         inkscape:connector-curvature="0"
         id="path4731"
         d="m 462.52793,464.48401 -70,0"
         style="fill:none;fill-rule:evenodd;stroke:#000000;stroke-width:10;stroke-linecap:butt;stroke-linejoin:miter;stroke-miterlimit:4;stroke-dasharray:none;stroke-opacity:1" />
      <path
         inkscape:connector-curvature="0"
         id="path4733"
         d="m 488.9565,484.48401 -86.42857,0"
         style="fill:none;fill-rule:evenodd;stroke:#000000;stroke-width:10;stroke-linecap:butt;stroke-linejoin:miter;stroke-miterlimit:4;stroke-dasharray:none;stroke-opacity:1" />
      <path
         inkscape:connector-curvature="0"
         id="path4735"
         d="m 489.67079,504.48401 -57.14286,0"
         style="fill:none;fill-rule:evenodd;stroke:#000000;stroke-width:10;stroke-linecap:butt;stroke-linejoin:miter;stroke-miterlimit:4;stroke-dasharray:none;stroke-opacity:1" />
      <path
         inkscape:connector-curvature="0"
         id="path4737"
         d="m 486.81364,544.48401 -50,0"
         style="fill:none;fill-rule:evenodd;stroke:#000000;stroke-width:10;stroke-linecap:butt;stroke-linejoin:miter;stroke-miterlimit:4;stroke-dasharray:none;stroke-opacity:1" />
      <path
         inkscape:connector-curvature="0"
         id="path4739"
         d="m 492.52793,564.48401 -90,0"
         style="fill:none;fill-rule:evenodd;stroke:#000000;stroke-width:10;stroke-linecap:butt;stroke-linejoin:miter;stroke-miterlimit:4;stroke-dasharray:none;stroke-opacity:1" />
      <path
         inkscape:connector-curvature="0"
         id="path4741"
         d="m 472.52793,584.48401 -80,0"
         style="fill:none;fill-rule:evenodd;stroke:#000000;stroke-width:10;stroke-linecap:butt;stroke-linejoin:miter;stroke-miterlimit:4;stroke-dasharray:none;stroke-opacity:1" />
      <path
         inkscape:connector-curvature="0"
         id="path4743"
         d="m 432.52793,604.48401 -30,0"
         style="fill:none;fill-rule:evenodd;stroke:#000000;stroke-width:10;stroke-linecap:butt;stroke-linejoin:miter;stroke-miterlimit:4;stroke-dasharray:none;stroke-opacity:1" />
      <path
         inkscape:connector-curvature="0"
         id="path4745"
         d="m 432.52793,624.48401 -30,0"
         style="fill:none;fill-rule:evenodd;stroke:#000000;stroke-width:10;stroke-linecap:butt;stroke-linejoin:miter;stroke-miterlimit:4;stroke-dasharray:none;stroke-opacity:1" />
      <path
         inkscape:connector-curvature="0"
         id="path4747"
         d="m 462.52793,644.48401 -70,0"
         style="fill:none;fill-rule:evenodd;stroke:#000000;stroke-width:10;stroke-linecap:butt;stroke-linejoin:miter;stroke-miterlimit:4;stroke-dasharray:none;stroke-opacity:1" />
      <path
         inkscape:connector-curvature="0"
         id="path4749"
         d="m 488.9565,664.48401 -86.42857,0"
         style="fill:none;fill-rule:evenodd;stroke:#000000;stroke-width:10;stroke-linecap:butt;stroke-linejoin:miter;stroke-miterlimit:4;stroke-dasharray:none;stroke-opacity:1" />
      <path
         inkscape:connector-curvature="0"
         id="path4751"
         d="m 489.67079,684.48401 -57.14286,0"
         style="fill:none;fill-rule:evenodd;stroke:#000000;stroke-width:10;stroke-linecap:butt;stroke-linejoin:miter;stroke-miterlimit:4;stroke-dasharray:none;stroke-opacity:1" />
      <path
         inkscape:connector-curvature="0"
         id="path4753"
         d="m 486.09936,724.48401 -53.57143,0"
         style="fill:none;fill-rule:evenodd;stroke:#000000;stroke-width:10;stroke-linecap:butt;stroke-linejoin:miter;stroke-miterlimit:4;stroke-dasharray:none;stroke-opacity:1" />
      <path
         inkscape:connector-curvature="0"
         id="path4755"
         d="m 492.52793,744.48401 -90,0"
         style="fill:none;fill-rule:evenodd;stroke:#000000;stroke-width:10;stroke-linecap:butt;stroke-linejoin:miter;stroke-miterlimit:4;stroke-dasharray:none;stroke-opacity:1" />
      <path
         inkscape:connector-curvature="0"
         id="path4757"
         d="m 468.24222,764.48401 -75.71429,0"
         style="fill:none;fill-rule:evenodd;stroke:#000000;stroke-width:10;stroke-linecap:butt;stroke-linejoin:miter;stroke-miterlimit:4;stroke-dasharray:none;stroke-opacity:1" />
      <path
         inkscape:connector-curvature="0"
         id="path4759"
         d="m 432.52793,784.48401 -30,0"
         style="fill:none;fill-rule:evenodd;stroke:#000000;stroke-width:10;stroke-linecap:butt;stroke-linejoin:miter;stroke-miterlimit:4;stroke-dasharray:none;stroke-opacity:1" />
      <path
         inkscape:connector-curvature="0"
         id="path4763"
         d="m 432.52793,804.48401 -30,0"
         style="fill:none;fill-rule:evenodd;stroke:#000000;stroke-width:10;stroke-linecap:butt;stroke-linejoin:miter;stroke-miterlimit:4;stroke-dasharray:none;stroke-opacity:1" />
      <path
         inkscape:connector-curvature="0"
         id="path4765"
         d="m 462.52793,824.48401 -70,0"
         style="fill:none;fill-rule:evenodd;stroke:#000000;stroke-width:10;stroke-linecap:butt;stroke-linejoin:miter;stroke-miterlimit:4;stroke-dasharray:none;stroke-opacity:1" />
      <path
         inkscape:connector-curvature="0"
         id="path4767"
         d="m 486.81364,844.48401 -84.28571,0"
         style="fill:none;fill-rule:evenodd;stroke:#000000;stroke-width:10;stroke-linecap:butt;stroke-linejoin:miter;stroke-miterlimit:4;stroke-dasharray:none;stroke-opacity:1" />
      <path
         inkscape:connector-curvature="0"
         id="path4769"
         d="m 492.52793,864.48401 -60,0"
         style="fill:none;fill-rule:evenodd;stroke:#000000;stroke-width:10;stroke-linecap:butt;stroke-linejoin:miter;stroke-miterlimit:4;stroke-dasharray:none;stroke-opacity:1" />
      <path
         inkscape:connector-curvature="0"
         id="path4771"
         d="m 487.52793,904.48401 -52.85714,0 0,0"
         style="fill:none;fill-rule:evenodd;stroke:#000000;stroke-width:10;stroke-linecap:butt;stroke-linejoin:miter;stroke-miterlimit:4;stroke-dasharray:none;stroke-opacity:1" />
      <path
         inkscape:connector-curvature="0"
         id="path4773"
         d="m 492.52793,924.48401 -90,0"
         style="fill:none;fill-rule:evenodd;stroke:#000000;stroke-width:10;stroke-linecap:butt;stroke-linejoin:miter;stroke-miterlimit:4;stroke-dasharray:none;stroke-opacity:1" />
      <path
         inkscape:connector-curvature="0"
         id="path4775"
         d="m 471.09936,944.48401 -78.57143,0"
         style="fill:none;fill-rule:evenodd;stroke:#000000;stroke-width:10;stroke-linecap:butt;stroke-linejoin:miter;stroke-miterlimit:4;stroke-dasharray:none;stroke-opacity:1" />
    </g>
    <g
       transform="scale(1.040207,0.9613471)"
       style="font-style:normal;font-weight:normal;font-size:301.21127319px;line-height:125%;font-family:sans-serif;letter-spacing:0px;word-spacing:0px;fill:#000000;fill-opacity:1;stroke:none;stroke-width:1px;stroke-linecap:butt;stroke-linejoin:miter;stroke-opacity:1"
       id="text4826">
      <path
         d="m 337.98356,523.92909 0,21.17891 -9.1187,0 q -36.62188,0 -49.12332,-10.88361 -12.35437,-10.88361 -12.35437,-43.38736 l 0,-35.15112 q 0,-22.20845 -7.9421,-30.73885 -7.94209,-8.5304 -28.82686,-8.5304 l -8.97162,0 0,-21.03184 8.97162,0 q 21.03184,0 28.82686,-8.38332 7.9421,-8.5304 7.9421,-30.44469 l 0,-35.2982 q 0,-32.50376 12.35437,-43.24029 12.50144,-10.88361 49.12332,-10.88361 l 9.1187,0 0,21.03184 -10.00116,0 q -20.73769,0 -27.06195,6.47134 -6.32426,6.47133 -6.32426,27.20902 l 0,36.47481 q 0,23.0909 -6.76548,33.53328 -6.61842,10.44238 -22.79676,14.11928 16.32542,3.97105 22.94383,14.41343 6.61841,10.44238 6.61841,33.38621 l 0,36.4748 q 0,20.73769 6.32426,27.20903 6.32426,6.47134 27.06195,6.47134 l 10.00116,0 z"
         style=""
         id="path4178" />
      <path
         d="m 509.32689,523.92909 10.2953,0 q 20.59062,0 26.7678,-6.32426 6.32426,-6.32426 6.32426,-27.35611 l 0,-36.4748 q 0,-22.94383 6.61841,-33.38621 6.61841,-10.44238 22.94383,-14.41343 -16.32542,-3.6769 -22.94383,-14.11928 -6.61841,-10.44238 -6.61841,-33.53328 l 0,-36.47481 q 0,-20.88476 -6.32426,-27.20902 -6.17718,-6.47134 -26.7678,-6.47134 l -10.2953,0 0,-21.03184 9.26577,0 q 36.62188,0 48.82917,10.88361 12.35437,10.73653 12.35437,43.24029 l 0,35.2982 q 0,21.91429 7.9421,30.44469 7.94209,8.38332 28.82686,8.38332 l 9.1187,0 0,21.03184 -9.1187,0 q -20.88477,0 -28.82686,8.5304 -7.9421,8.5304 -7.9421,30.73885 l 0,35.15112 q 0,32.50375 -12.35437,43.38736 -12.20729,10.88361 -48.82917,10.88361 l -9.26577,0 0,-21.17891 z"
         style=""
         id="path4180" />
    </g>
  </g>
</svg>
