<?xml version="1.0" standalone="no"?>
<!DOCTYPE svg PUBLIC "-//W3C//DTD SVG 20010904//EN"
 "http://www.w3.org/TR/2001/REC-SVG-20010904/DTD/svg10.dtd">
<svg version="1.0" xmlns="http://www.w3.org/2000/svg"
 width="840.000000pt" height="840.000000pt" viewBox="0 0 840.000000 840.000000"
 preserveAspectRatio="xMidYMid meet">
<metadata>
Created by potrace 1.11, written by Peter Selinger 2001-2013
</metadata>
<g transform="translate(0.000000,840.000000) scale(0.100000,-0.100000)"
fill="#000000" stroke="none">
<path d="M3220 7220 c0 -12 104 -136 140 -167 14 -11 45 -40 70 -62 25 -23 66
-56 92 -74 26 -17 46 -36 45 -41 -5 -15 -97 -76 -110 -73 -7 1 -12 -5 -12 -13
0 -8 -14 -26 -31 -40 -64 -52 -148 -145 -188 -209 -82 -127 -108 -234 -87
-353 10 -58 62 -185 81 -198 4 -3 9 -10 11 -17 9 -26 127 -152 202 -213 43
-36 84 -69 90 -75 33 -27 224 -156 282 -189 28 -16 52 -32 55 -35 3 -3 14 -11
25 -17 177 -96 615 -359 612 -367 -3 -10 -24 -24 -117 -77 -19 -11 -42 -25
-50 -30 -15 -10 -189 -111 -342 -199 -152 -86 -430 -267 -436 -282 -2 -5 -10
-9 -17 -9 -7 0 -15 -3 -17 -8 -1 -4 -25 -25 -53 -47 -320 -255 -408 -513 -264
-773 16 -28 39 -64 51 -80 50 -61 197 -200 256 -241 56 -40 75 -61 55 -61 -5
0 -23 -14 -42 -30 -18 -17 -42 -30 -53 -30 -10 0 -21 -7 -25 -16 -3 -8 -45
-54 -92 -102 -160 -161 -224 -291 -217 -446 8 -178 123 -350 356 -530 92 -72
277 -200 335 -232 39 -22 680 -397 683 -400 4 -3 -50 -38 -108 -70 -19 -10
-37 -22 -40 -25 -3 -3 -9 -8 -15 -10 -27 -11 -150 -84 -153 -91 -2 -4 -8 -8
-13 -8 -5 0 -56 -27 -112 -60 l-102 -60 623 0 c342 0 622 3 622 8 0 4 -12 21
-26 37 -14 17 -31 37 -38 45 -29 38 -191 178 -242 210 -13 8 -24 17 -24 20 0
3 18 17 39 32 92 66 218 184 278 261 74 96 124 222 125 317 1 35 -13 123 -20
135 -4 6 -7 16 -8 23 -3 20 -52 109 -84 154 -45 61 -98 117 -185 191 -104 88
-87 75 -227 171 -124 84 -182 120 -383 237 -60 35 -117 69 -126 74 -9 6 -38
22 -65 38 -175 98 -274 159 -274 168 0 5 15 16 33 25 17 9 50 29 72 43 22 14
42 26 45 26 3 0 24 13 47 28 24 15 47 27 52 27 5 0 16 6 23 13 11 11 73 47
273 161 27 15 62 37 77 47 14 10 28 19 31 19 3 0 29 16 59 35 29 19 60 39 68
44 160 104 294 207 379 293 71 71 144 169 165 219 7 19 17 43 21 54 41 103 31
245 -26 358 -60 118 -190 258 -341 366 -26 19 -45 37 -43 41 2 4 30 27 62 51
121 92 283 255 283 283 0 5 9 21 20 37 37 51 66 149 68 229 3 122 -38 231
-128 345 -50 63 -175 185 -190 185 -5 0 -10 3 -12 8 -4 10 -122 100 -193 147
-33 22 -61 43 -63 48 -2 4 -8 7 -13 7 -6 0 -45 22 -87 49 -119 76 -440 261
-451 261 -6 0 -11 5 -11 10 0 6 -4 10 -10 10 -5 0 -50 25 -100 55 -50 30 -95
55 -100 55 -27 0 -4 28 43 54 28 16 54 32 57 35 3 3 19 13 35 22 17 9 122 70
235 135 l205 119 -193 3 c-139 2 -199 -1 -215 -10 -34 -19 -601 -20 -641 -2
-35 17 -266 20 -266 4z m815 -634 c22 -11 56 -29 75 -41 19 -12 62 -37 95 -55
66 -36 135 -79 135 -83 0 -1 -216 -2 -480 -2 -377 0 -480 3 -480 13 0 6 4 12
9 12 5 0 12 8 16 18 7 21 87 109 125 137 25 19 43 20 246 20 194 0 224 -2 259
-19z m640 -381 c11 -8 40 -28 65 -45 48 -31 195 -149 189 -151 -19 -6 -1458
-3 -1471 3 -18 9 -102 131 -112 164 -5 16 -2 23 11 26 10 2 303 4 651 3 347 0
632 3 632 7 0 12 14 9 35 -7z m432 -433 c13 -31 13 -138 0 -159 -3 -4 -241 -8
-529 -7 -293 0 -528 -3 -535 -8 -7 -6 -60 22 -155 83 -79 50 -151 96 -160 103
-10 6 -18 13 -18 16 0 3 311 5 692 5 l692 0 13 -33z m-179 -397 c-58 -52 -130
-110 -142 -114 -6 -2 -13 -7 -16 -10 -3 -4 -20 -17 -38 -30 l-33 -23 -162 98
c-89 53 -165 100 -169 103 -4 4 128 6 293 6 l301 1 -34 -31z m-140 -482 c7 -7
16 -13 20 -13 15 0 85 -70 71 -71 -64 -5 -419 -3 -419 2 0 4 14 12 30 19 17 7
30 16 30 21 0 5 4 9 9 9 5 0 46 22 91 50 l82 49 37 -27 c20 -15 42 -33 49 -39z
m292 -292 c10 -2 41 -98 42 -126 0 -45 -8 -65 -27 -66 -69 -3 -1292 -4 -1298
-1 -11 5 197 140 288 188 13 7 180 10 505 9 267 -1 487 -3 490 -4z m-96 -402
c-4 -8 -149 -135 -180 -158 -43 -33 -53 -34 -746 -34 -378 0 -690 2 -693 5 -8
8 50 90 102 145 l48 50 737 0 c406 0 735 -4 732 -8z m-561 -405 c-10 -7 -23
-14 -30 -14 -6 0 -13 -4 -15 -8 -1 -5 -39 -28 -82 -53 -43 -24 -91 -51 -105
-59 -153 -89 -151 -88 -151 -66 0 12 -45 15 -277 15 l-277 1 -26 28 c-45 48
-110 145 -110 165 0 2 245 4 545 4 458 0 543 -2 528 -13z m-253 -881 l168 -98
-476 -3 c-261 -1 -477 0 -480 3 -10 10 139 176 169 188 8 3 112 6 233 6 l219
1 167 -97z m506 -308 c4 -8 11 -15 18 -15 12 0 127 -84 196 -143 l44 -37 -742
0 c-408 0 -742 3 -742 8 0 4 -14 23 -31 42 -40 45 -83 130 -72 141 5 5 299 10
653 12 355 1 651 3 658 5 7 1 15 -5 18 -13z m433 -441 c6 -25 9 -49 6 -54 -3
-5 -1 -11 4 -14 5 -4 5 -22 -1 -46 l-10 -40 -533 0 c-333 0 -535 -4 -537 -10
-4 -12 -288 162 -296 182 -2 4 -10 8 -17 8 -8 0 -17 5 -20 10 -4 7 230 10 693
10 l700 0 11 -46z m-200 -404 c-29 -27 -57 -50 -61 -50 -4 0 -13 -6 -20 -13
-7 -7 -38 -32 -69 -54 -64 -47 -53 -49 -170 25 -36 23 -71 42 -77 42 -6 0 -12
4 -14 8 -1 4 -33 25 -70 45 -38 21 -68 40 -68 42 0 3 136 5 302 5 l302 0 -55
-50z m-125 -459 c132 -96 139 -90 -103 -90 -196 0 -247 6 -188 25 12 4 24 10
27 13 5 7 172 110 178 111 2 0 41 -27 86 -59z"/>
<path d="M2006 6853 c-1 -1 -37 -4 -81 -7 -136 -9 -187 -15 -315 -40 -280 -56
-445 -160 -532 -336 -34 -70 -60 -142 -72 -200 -3 -14 -8 -36 -11 -50 -3 -14
-8 -43 -11 -65 -3 -22 -7 -53 -9 -70 -3 -16 -7 -77 -10 -135 -3 -58 -6 -122
-8 -143 -1 -20 1 -37 5 -37 4 0 5 -6 2 -14 -7 -19 -10 -106 -3 -106 3 0 3 -20
-1 -44 -3 -24 -3 -53 1 -64 4 -12 4 -34 0 -50 -5 -16 -5 -35 -1 -42 5 -7 5
-23 0 -34 -4 -12 -4 -30 0 -41 4 -11 4 -32 0 -46 -4 -15 -4 -32 0 -40 5 -7 7
-17 4 -21 -3 -4 -7 -79 -9 -165 -6 -191 -6 -197 -33 -300 -41 -153 -114 -256
-226 -316 -32 -17 -64 -32 -70 -33 -6 -2 -45 -11 -87 -22 -98 -26 -179 -34
-369 -36 l-155 -1 -3 -203 -2 -202 132 0 c278 -1 397 -20 535 -86 79 -38 139
-91 179 -160 31 -53 69 -155 79 -212 14 -83 15 -99 20 -245 3 -82 7 -153 11
-158 3 -5 2 -9 -3 -9 -4 0 -7 -24 -5 -52 2 -29 3 -59 3 -65 -1 -7 -1 -33 -1
-58 0 -25 0 -53 0 -62 0 -65 2 -108 6 -115 3 -4 2 -8 -3 -8 -8 0 -8 -64 0
-110 2 -14 1 -34 -3 -44 -3 -11 -3 -37 0 -58 4 -21 3 -41 -1 -44 -5 -3 -7 -10
-3 -16 3 -5 8 -42 10 -81 7 -127 19 -215 41 -297 8 -30 15 -59 17 -65 23 -96
95 -223 164 -290 88 -85 242 -149 452 -190 53 -11 72 -13 220 -31 58 -6 298
-15 420 -14 52 0 106 0 120 0 l26 0 0 200 c0 110 -3 201 -6 201 -3 1 -77 3
-165 4 -432 7 -579 56 -661 218 -13 26 -22 47 -19 47 3 0 1 8 -4 19 -6 10 -13
31 -16 47 -2 16 -7 40 -10 54 -15 74 -18 177 -20 615 -2 474 -7 597 -27 685
-5 25 -12 54 -14 65 -33 162 -108 284 -229 371 -74 53 -194 108 -272 125 -49
11 -72 29 -39 29 25 0 180 53 197 67 8 7 23 13 32 13 9 0 17 4 17 9 0 5 14 14
31 21 48 20 152 129 192 201 41 76 65 149 85 264 22 122 25 190 27 695 2 283
6 526 10 540 3 14 8 43 11 65 16 117 76 234 144 279 49 33 167 72 240 80 30 4
75 9 100 12 25 3 124 7 220 7 l175 2 0 200 0 200 -208 0 c-115 0 -209 -1 -211
-2z"/>
<path d="M5989 6857 c-3 -5 -5 -383 -2 -392 2 -7 57 -11 146 -12 140 0 278 -8
347 -18 44 -6 115 -22 115 -25 0 -1 8 -3 18 -5 32 -6 105 -46 135 -73 25 -24
65 -79 67 -92 0 -3 6 -15 13 -27 7 -13 10 -23 6 -23 -3 0 -2 -6 3 -12 6 -7 13
-29 17 -48 3 -19 8 -46 11 -60 14 -67 17 -181 20 -620 2 -433 11 -675 25 -675
1 0 3 -9 4 -20 14 -99 78 -260 127 -316 12 -13 24 -29 27 -35 12 -20 136 -109
183 -131 47 -22 159 -62 191 -68 10 -2 26 -8 35 -14 16 -9 14 -10 -9 -11 -38
0 -178 -52 -254 -95 -144 -81 -252 -233 -288 -405 -3 -14 -10 -45 -15 -70 -19
-94 -24 -219 -26 -680 -3 -548 -5 -594 -46 -725 -23 -77 -53 -129 -94 -164
-29 -25 -119 -68 -157 -75 -13 -2 -30 -7 -38 -10 -41 -15 -191 -27 -390 -30
-91 -2 -168 -4 -171 -5 -8 -2 -5 -388 3 -397 6 -6 78 -8 104 -3 5 1 14 0 19
-1 27 -5 402 8 450 16 17 3 48 7 70 9 267 25 495 112 604 231 43 47 115 168
127 212 2 9 15 59 29 110 24 89 29 121 41 222 3 25 7 257 9 515 3 433 9 617
20 648 3 7 7 26 9 42 23 164 103 295 221 361 89 49 168 74 285 89 93 12 129
14 273 14 l147 1 0 203 0 202 -158 1 c-176 2 -257 9 -352 30 -208 47 -316 131
-377 294 -60 161 -65 214 -68 799 -1 256 -6 495 -9 531 -9 77 -14 115 -16 115
-1 0 -3 11 -4 25 -10 87 -55 223 -101 305 -57 101 -143 180 -248 229 -48 22
-177 66 -177 61 0 -3 -11 0 -25 5 -28 10 -48 15 -140 30 -60 9 -133 19 -210
26 -43 4 -524 14 -526 11z"/>
</g>
</svg>
